<?xml version="1.0" standalone="no"?>
<!DOCTYPE svg PUBLIC "-//W3C//DTD SVG 20010904//EN"
 "http://www.w3.org/TR/2001/REC-SVG-20010904/DTD/svg10.dtd">
<svg version="1.0" xmlns="http://www.w3.org/2000/svg"
 width="500.000000pt" height="250.000000pt" viewBox="0 0 500.000000 250.000000"
 preserveAspectRatio="xMidYMid meet">

<g transform="translate(0.000000,250.000000) scale(0.100000,-0.100000)"
fill="#000000" stroke="none">
<path d="M4140 1644 l0 -205 -27 19 c-64 44 -180 56 -251 27 -52 -22 -110 -81
-138 -140 -44 -93 -28 -239 35 -316 88 -107 262 -124 359 -36 l22 20 0 -31 0
-32 90 0 90 0 0 450 0 450 -90 0 -90 0 0 -206z m-76 -308 c49 -20 76 -61 76
-113 0 -58 -21 -96 -64 -117 -65 -31 -130 -12 -166 47 -44 71 -4 169 75 190
34 8 45 7 79 -7z"/>
<path d="M2054 1816 c-92 -41 -84 -179 11 -205 108 -29 189 101 110 178 -37
35 -80 45 -121 27z"/>
<path d="M228 1402 c-92 -229 -170 -425 -174 -434 -6 -16 3 -18 98 -18 l104 0
33 91 34 90 166 -6 c91 -4 166 -7 167 -8 1 -1 15 -38 31 -82 l30 -80 107 -3
106 -3 -9 23 c-5 13 -82 203 -171 423 -89 220 -164 406 -167 413 -4 8 -33 12
-97 12 l-91 0 -167 -418z m310 22 c23 -61 42 -114 42 -117 0 -4 -43 -7 -96 -7
-88 0 -96 2 -89 18 4 9 25 65 48 125 22 59 43 104 47 100 4 -5 25 -58 48 -119z"/>
<path d="M2271 1489 c-13 -5 -36 -18 -52 -30 l-29 -20 0 25 0 26 -95 0 -95 0
0 -270 0 -270 95 0 95 0 0 174 c0 167 1 176 23 201 14 17 33 27 52 27 91 3
105 -29 105 -241 l0 -161 90 0 90 0 0 160 c0 184 9 221 58 238 41 14 81 2 106
-32 19 -25 21 -44 24 -197 l4 -169 89 0 89 0 0 200 c0 209 -6 247 -48 294 -30
33 -93 56 -158 56 -49 0 -68 -5 -105 -28 -24 -16 -50 -36 -58 -46 -13 -16 -16
-15 -45 13 -17 17 -48 37 -68 45 -41 18 -130 20 -167 5z"/>
<path d="M3194 1482 c-112 -39 -183 -127 -192 -237 -7 -98 11 -149 77 -216 69
-68 131 -92 241 -92 110 0 172 24 240 92 63 63 80 106 80 198 0 111 -73 210
-187 253 -69 26 -187 26 -259 2z m193 -158 c36 -23 56 -62 56 -109 0 -54 -24
-92 -71 -112 -70 -29 -147 3 -170 72 -38 114 85 214 185 149z"/>
<path d="M4575 1488 c-101 -35 -152 -136 -110 -218 20 -38 65 -71 148 -108 68
-31 83 -52 55 -80 -25 -25 -116 -5 -160 35 -10 9 -20 14 -22 12 -19 -21 -66
-121 -61 -129 3 -6 23 -19 43 -29 124 -63 329 -35 382 51 27 44 27 131 0 175
-24 41 -52 59 -142 92 -58 21 -74 31 -76 49 -6 40 45 46 150 17 25 -6 29 -3
52 44 14 28 26 54 26 59 0 31 -217 54 -285 30z"/>
<path d="M882 1481 c1 -5 66 -127 143 -271 l140 -261 64 3 65 3 59 133 c33 73
63 130 66 126 3 -3 32 -63 63 -132 l57 -127 64 -3 65 -3 139 258 c76 141 139
263 141 270 3 10 -21 13 -101 13 l-104 0 -63 -140 c-35 -77 -66 -140 -70 -140
-3 0 -33 62 -66 138 l-61 137 -65 3 -65 3 -66 -148 -66 -148 -15 35 c-8 19
-37 85 -65 145 l-50 110 -107 3 c-65 2 -105 -1 -102 -7z"/>
</g>
</svg>
