<?xml version="1.0" standalone="no"?>
<!DOCTYPE svg PUBLIC "-//W3C//DTD SVG 20010904//EN"
 "http://www.w3.org/TR/2001/REC-SVG-20010904/DTD/svg10.dtd">
<svg version="1.0" xmlns="http://www.w3.org/2000/svg"
 width="500.000000pt" height="500.000000pt" viewBox="0 0 500.000000 500.000000"
 preserveAspectRatio="xMidYMid meet">

<g transform="translate(0.000000,500.000000) scale(0.100000,-0.100000)"
fill="#000000" stroke="none">
<path d="M4140 3095 l0 -205 -42 27 c-35 23 -55 29 -120 32 -69 3 -85 0 -134
-24 -38 -19 -66 -42 -88 -72 -44 -63 -54 -98 -54 -183 0 -85 10 -120 54 -183
77 -108 268 -132 361 -45 l23 21 0 -31 0 -32 90 0 90 0 0 450 0 450 -90 0 -90
0 0 -205z m-70 -310 c48 -25 70 -62 70 -116 0 -93 -87 -151 -172 -116 -96 40
-101 183 -8 229 43 22 72 23 110 3z"/>
<path d="M2043 3261 c-40 -25 -53 -49 -53 -100 0 -57 45 -101 104 -101 48 0
80 19 102 62 47 91 -66 193 -153 139z"/>
<path d="M222 2842 c-94 -236 -172 -432 -172 -435 0 -4 46 -7 103 -7 l103 0
13 38 c8 20 22 61 33 90 l20 52 165 -2 166 -3 32 -85 32 -85 106 -3 107 -3 -9
23 c-15 39 -281 698 -313 776 l-30 72 -92 0 -91 0 -173 -428z m317 33 c22 -61
41 -114 41 -118 0 -4 -43 -7 -96 -7 -73 0 -95 3 -92 13 58 153 93 236 98 230
4 -4 26 -58 49 -118z"/>
<path d="M2302 2950 c-18 -4 -50 -19 -72 -34 l-40 -26 0 25 c0 25 0 25 -95 25
l-95 0 0 -270 0 -270 95 0 95 0 0 178 c1 191 3 202 55 222 20 8 38 7 62 -1 54
-18 63 -51 63 -239 l0 -160 90 0 90 0 0 160 c0 118 4 170 15 195 25 61 98 70
146 19 23 -25 24 -33 27 -200 l4 -174 89 0 89 0 0 198 c0 108 -4 212 -10 231
-38 133 -247 167 -349 57 l-24 -26 -42 39 c-23 21 -56 42 -74 45 -66 13 -87
14 -119 6z"/>
<path d="M3264 2950 c-108 -16 -200 -79 -240 -165 -70 -149 15 -335 174 -381
83 -25 222 -16 287 18 102 53 154 138 155 248 0 138 -104 257 -242 275 -23 4
-52 8 -63 9 -11 2 -43 0 -71 -4z m113 -167 c74 -35 91 -143 32 -203 -36 -35
-75 -45 -128 -30 -53 14 -83 56 -83 116 -1 53 22 91 73 116 42 22 62 22 106 1z"/>
<path d="M4566 2935 c-80 -28 -126 -103 -111 -181 9 -51 65 -104 141 -134 32
-13 65 -28 72 -33 18 -14 15 -45 -7 -57 -32 -17 -63 -11 -120 20 -30 17 -55
29 -56 28 -78 -124 -78 -130 6 -166 46 -19 68 -22 154 -19 84 2 107 6 144 27
62 35 83 78 79 159 -4 61 -6 66 -45 100 -24 22 -69 46 -114 62 -59 20 -75 30
-77 47 -6 37 36 48 108 29 33 -10 62 -17 65 -17 6 0 55 96 55 109 0 34 -218
53 -294 26z"/>
<path d="M882 2932 c1 -5 66 -126 143 -271 l140 -262 64 3 64 3 51 115 c28 63
56 126 62 139 9 21 16 10 71 -115 l62 -139 64 -3 65 -3 141 264 c77 145 141
267 141 271 0 3 -47 6 -104 6 l-104 0 -63 -140 c-34 -77 -65 -140 -68 -140 -4
0 -33 62 -67 138 l-60 137 -68 0 -67 0 -61 -137 c-34 -76 -64 -138 -67 -138
-3 0 -34 62 -67 138 l-61 137 -108 3 c-59 1 -105 -1 -103 -6z"/>
</g>
</svg>
